HIERARCHY
ROOT Hips
{
	OFFSET 0.00000 0.00000 0.00000
	CHANNELS 6 Xposition Yposition Zposition Zrotation Yrotation Xrotation 
	JOINT LHipJoint
	{
		OFFSET 0 0 0
		CHANNELS 3 Zrotation Yrotation Xrotation
		JOINT LeftHip
		{
			OFFSET 1.55020 -1.87941 0.79896
			CHANNELS 3 Zrotation Yrotation Xrotation
			JOINT LeftKnee
			{
				OFFSET 2.65269 -7.28822 0.00000
				CHANNELS 3 Zrotation Yrotation Xrotation
				JOINT LeftAnkle
				{
					OFFSET 2.61200 -7.17641 0.00000
					CHANNELS 3 Zrotation Yrotation Xrotation
					JOINT LeftToe
					{
						OFFSET 0.09338 -0.25656 1.92461
						CHANNELS 3 Zrotation Yrotation Xrotation
						End Site
						{
							OFFSET 0.00000 -0.00000 0.98480
						}
					}
				}
			}
		}
	}
	JOINT RHipJoint
	{
		OFFSET 0 0 0
		CHANNELS 3 Zrotation Yrotation Xrotation
		JOINT RightHip
		{
			OFFSET -1.56866 -1.87941 0.79895
			CHANNELS 3 Zrotation Yrotation Xrotation
			JOINT RightKnee
			{
				OFFSET -2.60199 -7.14892 0.00000
				CHANNELS 3 Zrotation Yrotation Xrotation
				JOINT RightAnkle
				{
					OFFSET -2.62841 -7.22151 0.00000
					CHANNELS 3 Zrotation Yrotation Xrotation
					JOINT RightToe
					{
						OFFSET -0.19532 -0.53663 1.93132
						CHANNELS 3 Zrotation Yrotation Xrotation
						End Site
						{
							OFFSET -0.00000 -0.00000 1.00896
						}
					}
				}
			}
		}
	}
	JOINT lowerback
	{
		OFFSET 0 0 0
		CHANNELS 3 Zrotation Yrotation Xrotation
		JOINT Chest
		{
			OFFSET 0.06381 2.07806 -0.22112
			CHANNELS 3 Zrotation Yrotation Xrotation
			JOINT Chest2
			{
				OFFSET -0.02881 2.08890 0.01825
				CHANNELS 3 Zrotation Yrotation Xrotation
				JOINT lowerneck
				{
					OFFSET 0 0 0
					CHANNELS 3 Zrotation Yrotation Xrotation
					JOINT Neck
					{
						OFFSET 0.02418 1.74325 -0.02023
						CHANNELS 3 Zrotation Yrotation Xrotation
						JOINT Head
						{
							OFFSET -0.01704 1.71677 0.04090
							CHANNELS 3 Zrotation Yrotation Xrotation
							End Site
							{
								OFFSET -0.00946 1.78238 0.01684
							}
						}
					}
				}
				JOINT LeftCollar
				{
					OFFSET 0 0 0
					CHANNELS 3 Zrotation Yrotation Xrotation
					JOINT LeftShoulder
					{
						OFFSET 3.39783 1.34157 0.16610
CHANNELS 3 Zrotation Xrotation Yrotation
						JOINT LeftElbow
						{
OFFSET 0 -5.152180 0.000000
CHANNELS 3 Zrotation Xrotation Yrotation
							JOINT LeftWrist
							{
OFFSET 0 -3.494590 0.000000
CHANNELS 3 Zrotation Xrotation Yrotation
								JOINT lhand
								{
									OFFSET 0 0 0
CHANNELS 3 Zrotation Xrotation Yrotation
									JOINT LFingers
									{
OFFSET 0 -0.512470 0.000000
CHANNELS 3 Zrotation Xrotation Yrotation
										End Site
										{
OFFSET 0 -0.413160 0.000000
										}
									}
								}
								JOINT LThumb
								{
OFFSET 0 0.000000 0.000000
CHANNELS 3 Zrotation Xrotation Yrotation
									End Site
									{
OFFSET 0 -0.419470 0.419470
									}
								}
							}
						}
					}
				}
				JOINT RightCollar
				{
					OFFSET 0 0 0
					CHANNELS 3 Zrotation Yrotation Xrotation
					JOINT RightShoulder
					{
						OFFSET -3.26224 1.05509 0.01188
CHANNELS 3 Zrotation Xrotation Yrotation
						JOINT RightElbow
						{
OFFSET 0 -5.443440 0.000000
CHANNELS 3 Zrotation Xrotation Yrotation
							JOINT RightWrist
							{
OFFSET 0 -3.584030 0.000000
CHANNELS 3 Zrotation Xrotation Yrotation
								JOINT rhand
								{
									OFFSET 0 0 0
CHANNELS 3 Zrotation Xrotation Yrotation
									JOINT RFingers
									{
OFFSET 0 -0.342490 0.000000
CHANNELS 3 Zrotation Xrotation Yrotation
										End Site
										{
OFFSET 0 -0.276120 0.000000
										}
									}
								}
								JOINT RThumb
								{
OFFSET 0 0.000000 0.000000
CHANNELS 3 Zrotation Xrotation Yrotation
									End Site
									{
OFFSET 0 -0.280340 0.280340
									}
								}
							}
						}
					}
				}
			}
		}
	}
}
MOTION
Frames: 8
Frame Time: 0.008333333333333333
-14.243427 16.469393 2.173945 -58.823148 -101.460528 59.834627 0.000000 0.000000 0.000000 -28.971444 -3.913273 -24.797409 8.090026 16.185085 52.886368 -1.354349 -25.314358 -7.221825 0.025818 -1.031702 -2.836034 0.000000 0.000000 0.000000 -4.603736 17.355046 -25.747923 -9.752490 -17.268284 58.657741 -1.908951 -6.433941 -29.060544 -1.231061 7.035254 -19.820300 5.608907 -0.421027 17.134219 -1.688954 0.006517 5.132084 -4.978936 -0.119986 -4.074078 -4.904151 -6.494010 7.209192 -0.681598 -9.107651 3.935299 0.746401 -4.653883 0.225395 0.000000 0.000000 0.000000 6.724713 23.122872 -2.622369 34.808246 -44.669599 14.680095 27.012556 8.104896 -2.848194 0.000000 0.000000 0.000000 -7.125000 0.000000 0.000000 0.335690 33.175876 0.097143 0.000000 0.000000 0.000000 -19.484724 -0.106314 28.279358 -22.437845 -33.468285 -6.825789 -36.878179 52.128750 30.928187 0.000000 0.000000 0.000000 7.125000 0.000000 0.000000 3.283607 -23.274552 178.278588
-14.389352 16.435660 2.049740 -63.094743 -101.124431 61.191382 0.000000 0.000000 0.000000 -29.133809 -3.428048 -20.852686 8.070374 16.170789 52.815835 -1.146709 -24.955614 -8.752536 0.048310 -1.418085 -3.900008 0.000000 0.000000 0.000000 -3.170421 15.808601 -22.010801 -9.871696 -17.337078 59.058696 -2.067394 -6.131220 -29.908955 -1.290670 7.198269 -20.304239 3.922448 -1.386746 16.453078 -1.787012 -1.645752 6.114453 -3.795983 -0.916711 -2.844828 -7.200094 -9.063152 9.956754 0.815181 -12.925885 -1.164536 1.966871 -6.450321 -1.521701 0.000000 0.000000 0.000000 4.784649 22.592742 -0.300994 31.353778 -42.020791 12.307852 26.934454 7.879514 -3.415894 0.000000 0.000000 0.000000 -7.125000 0.000000 0.000000 0.261120 33.809992 0.071675 0.000000 0.000000 0.000000 -18.285717 1.023179 29.558682 -21.979450 -32.953650 -6.574738 -36.994904 51.430419 31.200103 0.000000 0.000000 0.000000 7.125000 0.000000 0.000000 3.271299 -22.936674 178.259438
-14.494446 16.409289 1.881638 -62.715551 -99.650470 58.336945 0.000000 0.000000 0.000000 -27.548276 -3.279636 -17.569607 8.154351 16.231622 53.116644 -0.844540 -24.298436 -10.712358 0.092258 -1.958907 -5.392003 0.000000 0.000000 0.000000 -0.289741 13.603736 -19.402770 -10.018132 -17.419977 59.548964 -2.161496 -5.535801 -30.183926 -1.318609 7.272865 -20.526313 3.061816 -2.271983 16.316747 -1.536235 -2.985896 6.724469 -2.803453 -1.594068 -2.202722 -8.866769 -11.405485 11.420608 2.299911 -16.338372 -4.276241 3.035016 -8.089028 -2.404818 0.000000 0.000000 0.000000 3.085394 22.292558 1.064021 27.787896 -38.913832 9.992608 26.373562 8.393539 -3.663231 0.000000 0.000000 0.000000 -7.125000 0.000000 0.000000 -0.205789 34.067050 -0.054943 0.000000 0.000000 0.000000 -17.111521 2.259152 31.086245 -21.451292 -32.351178 -6.289791 -36.493399 50.325801 30.826106 0.000000 0.000000 0.000000 7.125000 0.000000 0.000000 3.086918 -23.511873 178.398559
-14.591067 16.393530 1.691163 -61.210255 -98.497714 54.671285 0.000000 0.000000 0.000000 -26.168090 -3.411232 -14.461562 8.217245 16.276718 53.341390 -0.571794 -23.700072 -12.412004 0.059528 -1.574332 -4.330753 0.000000 0.000000 0.000000 1.950004 10.016298 -18.079419 -10.232235 -17.538340 60.261848 -2.145068 -4.514489 -29.569001 -1.453282 7.618792 -21.562754 1.884600 -2.973707 16.292373 -1.520306 -4.131822 7.257834 -1.931000 -2.192816 -1.633135 -9.919029 -12.984133 12.040039 3.977012 -18.542498 -6.040116 3.827402 -9.193082 -2.652105 0.000000 0.000000 0.000000 1.892401 21.871806 1.635058 24.606619 -35.793953 8.060829 24.530125 9.876398 -3.440225 0.000000 0.000000 0.000000 -7.125000 0.000000 0.000000 -1.709942 33.756893 -0.472169 0.000000 0.000000 0.000000 -15.691894 3.532379 32.313796 -21.186864 -32.045823 -6.148819 -36.237839 50.434916 30.647792 0.000000 0.000000 0.000000 7.125000 0.000000 0.000000 2.986827 -23.789935 178.469862
-14.652930 16.416399 1.475561 -46.381484 -97.387581 38.198695 0.000000 0.000000 0.000000 -23.428352 -3.226036 -11.942241 8.176023 16.247199 53.194177 -0.223424 -22.668598 -14.299019 0.105758 -2.083143 -5.736015 0.000000 0.000000 0.000000 5.450510 7.432373 -17.740832 -10.513454 -17.688486 61.190962 -2.031263 -4.006657 -28.593602 -0.984928 6.313694 -17.698490 1.678483 -3.122461 16.707456 -1.313272 -4.371867 7.419352 -1.538475 -2.330444 -1.660248 -9.263687 -13.953059 12.349360 4.430966 -19.727693 -7.236371 3.655419 -9.799696 -2.782796 0.000000 0.000000 0.000000 1.596986 21.309931 0.934499 21.660647 -32.587499 6.403834 23.125500 11.671083 -2.872508 0.000000 0.000000 0.000000 -7.125000 0.000000 0.000000 -2.828175 33.093712 -0.826505 0.000000 0.000000 0.000000 -14.025410 5.141012 33.009812 -20.989893 -31.816520 -6.044638 -35.917966 50.610436 30.980490 0.000000 0.000000 0.000000 7.125000 0.000000 0.000000 2.702792 -23.527973 178.599413
-14.698926 16.431491 1.263256 -34.654513 -97.945420 25.193724 0.000000 0.000000 0.000000 -22.369841 -3.814544 -9.185393 8.003089 16.121466 52.573669 0.412918 -20.428863 -17.533676 0.435749 -4.224380 -11.710505 0.000000 0.000000 0.000000 7.309902 5.583261 -17.920529 -10.850749 -17.861237 62.295749 -1.859502 -3.223536 -27.084972 -0.758575 5.553778 -15.497113 0.706437 -2.820414 16.885814 -1.409267 -4.151115 7.590185 -1.131674 -2.249784 -1.508817 -8.751482 -14.449708 11.905887 5.114427 -20.207011 -7.503368 3.762511 -10.077537 -2.736421 0.000000 0.000000 0.000000 1.474595 20.076721 0.028979 19.663784 -30.234614 5.361297 22.397103 12.975424 -3.215160 0.000000 0.000000 0.000000 -7.125000 0.000000 0.000000 -3.440753 33.442248 -0.976258 0.000000 0.000000 0.000000 -12.356520 6.224729 32.787488 -21.195053 -32.055250 -6.153109 -35.622051 48.983314 30.532320 0.000000 0.000000 0.000000 7.125000 0.000000 0.000000 2.652015 -24.112533 178.661386
-14.719773 16.461057 1.034676 -20.556295 -99.412240 10.810776 0.000000 0.000000 0.000000 -20.942090 -5.116096 -7.298464 7.865818 16.019648 52.077866 1.202726 -16.872953 -21.422389 1.176348 -6.860446 -19.311738 0.000000 0.000000 0.000000 9.889404 4.894502 -18.297941 -10.811307 -17.841419 62.167211 -1.810215 -2.569466 -26.452109 -0.668586 5.224967 -14.552172 0.233583 -2.355785 16.824588 -1.257429 -3.586998 7.197674 -0.798770 -1.971482 -1.842050 -8.298824 -14.476481 11.724841 5.691249 -20.106425 -7.701671 3.860517 -10.061946 -2.755976 0.000000 0.000000 0.000000 0.796772 19.454421 0.300124 19.052397 -29.483738 5.056605 22.496904 13.813085 -3.598960 0.000000 0.000000 0.000000 -7.125000 0.000000 0.000000 -3.383263 33.859973 -0.925976 0.000000 0.000000 0.000000 -11.058267 7.305255 32.775828 -21.301689 -32.178742 -6.209867 -35.066950 48.689686 30.205886 0.000000 0.000000 0.000000 7.125000 0.000000 0.000000 2.408128 -24.642870 178.814491
-14.723210 16.490665 0.784605 -7.562197 -101.351648 -1.536902 0.000000 0.000000 0.000000 -19.048299 -7.214135 -6.318489 7.914280 16.055833 52.253416 1.968058 -12.489894 -25.395584 2.058934 -8.980609 -25.739917 0.000000 0.000000 0.000000 13.089496 4.897145 -18.090315 -10.229165 -17.536116 60.250770 -1.971703 -0.860692 -26.888728 -0.546776 4.737046 -13.160194 0.250445 -2.015040 16.216715 -0.768005 -3.067040 6.547878 -0.396604 -1.695244 -2.175713 -7.722555 -14.313044 10.896415 5.836134 -19.737330 -7.653791 3.756381 -9.896760 -2.677121 0.000000 0.000000 0.000000 -0.300608 19.161121 0.375376 19.603931 -30.161547 5.331296 23.415673 12.531898 -3.885945 0.000000 0.000000 0.000000 -7.125000 0.000000 0.000000 -2.647324 34.204168 -0.701954 0.000000 0.000000 0.000000 -10.330187 7.367397 33.247940 -20.922152 -31.737165 -6.008972 -35.083734 49.268361 29.271806 0.000000 0.000000 0.000000 7.125000 0.000000 0.000000 2.671298 -25.663025 178.747744
